<svg width="282" height="93" viewBox="0 0 282 93" fill="none" xmlns="http://www.w3.org/2000/svg">
<path d="M23.4785 75.4863C23.4785 78.584 24.9479 80.1328 27.8867 80.1328H41.4688C44.2487 80.1328 46.1549 79.6165 47.1875 78.584C48.2201 77.5514 49.0143 75.3275 49.5703 71.9121C49.9674 69.3704 51.7943 68.2585 55.0508 68.5762C58.3867 68.8145 60.0547 70.0853 60.0547 72.3887L59.2207 90.8555H8.4668V17.8223C8.4668 15.2806 8.26823 13.6523 7.87109 12.9375C7.55339 12.1432 7.11654 11.6667 6.56055 11.5078C5.05143 11.1107 3.74089 10.6341 2.62891 10.0781C1.51693 9.52214 0.960938 8.48958 0.960938 6.98047C0.960938 4.4388 2.62891 3.16797 5.96484 3.16797H18.5938C21.8503 3.16797 23.4785 4.4388 23.4785 6.98047V75.4863ZM131.873 16.9883V39.3867H142.357C146.408 39.3867 149.625 38.3939 152.007 36.4082C154.47 34.3431 155.701 30.888 155.701 26.043C155.701 21.7539 154.311 18.4974 151.531 16.2734C148.83 14.0495 145.494 12.9375 141.523 12.9375H136.162C133.302 12.9375 131.873 14.2878 131.873 16.9883ZM131.873 76.7969C131.873 79.5768 133.342 80.9668 136.281 80.9668H141.88C146.884 80.9668 151.054 79.7357 154.39 77.2734C157.806 74.8112 159.513 71.1178 159.513 66.1934C159.513 60.3158 157.885 56.1061 154.629 53.5645C151.451 50.9434 147.44 49.6328 142.595 49.6328H131.873V76.7969ZM143.906 90.8555H117.099V17.7031C117.099 15.2409 116.861 13.6126 116.384 12.8184C115.987 12.0241 115.431 11.5078 114.716 11.2695C113.207 10.793 112.056 10.237 111.261 9.60156C110.546 8.96615 110.189 8.01302 110.189 6.74219C110.189 4.27995 111.539 3.04883 114.24 3.04883H142.834C151.729 3.04883 158.64 4.99479 163.564 8.88672C168.568 12.6992 171.07 18.0605 171.07 24.9707C171.07 29.8952 169.799 34.1048 167.257 37.5996C164.795 41.015 162.452 43.0404 160.228 43.6758C163.643 44.4701 166.94 46.8529 170.117 50.8242C173.294 54.7161 174.882 59.8392 174.882 66.1934C174.882 73.5007 172.341 79.4577 167.257 84.0645C162.174 88.5918 154.39 90.8555 143.906 90.8555ZM265.644 66.1934C265.405 62.8574 264.015 59.9186 261.474 57.377C258.932 54.7559 254.842 51.9362 249.202 48.918C242.689 45.7409 237.725 42.127 234.31 38.0762C230.894 33.946 229.226 28.8229 229.306 22.707C229.465 16.6706 231.848 11.627 236.454 7.57617C241.061 3.52539 247.256 1.5 255.04 1.5C259.25 1.5 263.062 1.81771 266.478 2.45312C269.893 3.08854 273.269 4.00195 276.605 5.19336V17.7031C272.077 15.3203 268.066 13.7318 264.571 12.9375C261.077 12.1432 258.058 11.7461 255.517 11.7461C252.975 11.7461 250.553 12.7389 248.249 14.7246C245.946 16.6309 244.794 19.4505 244.794 23.1836C244.794 26.5195 246.184 29.498 248.964 32.1191C251.823 34.6608 256.351 37.5996 262.546 40.9355C268.821 44.2715 273.507 48.0046 276.605 52.1348C279.782 56.1855 281.37 60.9512 281.37 66.4316C281.37 73.1829 278.948 78.9811 274.103 83.8262C269.337 88.6712 262.268 91.332 252.896 91.8086C249.401 91.9674 245.708 91.6497 241.816 90.8555C237.924 89.9818 234.747 88.7507 232.284 87.1621C230.696 86.209 229.663 85.0573 229.187 83.707C228.71 82.3568 228.71 80.8874 229.187 79.2988C229.902 77.7103 231.212 76.6777 233.118 76.2012C235.025 75.6452 237.209 76.1217 239.671 77.6309C241.339 78.4251 243.444 79.1797 245.986 79.8945C248.527 80.5299 250.711 80.8079 252.538 80.7285C256.986 80.3314 260.402 78.8223 262.784 76.2012C265.167 73.5801 266.12 70.2441 265.644 66.1934Z" fill="#043A70"/>
<path d="M91.3172 90.8555H76.4246V43.0801C76.4246 40.6178 76.226 38.9499 75.8289 38.0762C75.4318 37.2025 74.9949 36.6465 74.5184 36.4082C73.0887 36.0111 72.0164 35.5345 71.3016 34.9785C70.5867 34.4225 70.2293 33.5885 70.2293 32.4766C70.2293 29.776 71.937 28.4258 75.3523 28.4258H86.1941C89.6095 28.4258 91.3172 29.8555 91.3172 32.7148V90.8555ZM91.7937 9.95898C91.7937 12.5007 90.8803 14.6849 89.0535 16.5117C87.3061 18.2591 85.1616 19.1328 82.6199 19.1328C80.0783 19.1328 77.9337 18.2591 76.1863 16.5117C74.4389 14.6849 73.5652 12.5007 73.5652 9.95898C73.5652 7.41732 74.4389 5.23307 76.1863 3.40625C77.9337 1.5 80.0783 0.546875 82.6199 0.546875C85.1616 0.546875 87.3061 1.5 89.0535 3.40625C90.8803 5.23307 91.7937 7.41732 91.7937 9.95898ZM210.077 90.8555H195.184V43.0801C195.184 40.6178 194.985 38.9499 194.588 38.0762C194.191 37.2025 193.754 36.6465 193.278 36.4082C191.848 36.0111 190.776 35.5345 190.061 34.9785C189.346 34.4225 188.989 33.5885 188.989 32.4766C188.989 29.776 190.696 28.4258 194.112 28.4258H204.954C208.369 28.4258 210.077 29.8555 210.077 32.7148V90.8555ZM210.553 9.95898C210.553 12.5007 209.64 14.6849 207.813 16.5117C206.066 18.2591 203.921 19.1328 201.379 19.1328C198.838 19.1328 196.693 18.2591 194.946 16.5117C193.198 14.6849 192.325 12.5007 192.325 9.95898C192.325 7.41732 193.198 5.23307 194.946 3.40625C196.693 1.5 198.838 0.546875 201.379 0.546875C203.921 0.546875 206.066 1.5 207.813 3.40625C209.64 5.23307 210.553 7.41732 210.553 9.95898Z" fill="#F9B023"/>
</svg>
